Coordinates
version=1
nRows=8
nColumns=40
inDegrees=yes

Units are S.I. units (second, meters, Newtons, ...)
If the header above contains a line with 'inDegrees', this indicates whether rotational values are in degrees (yes) or radians (no).

endheader
time	pelvis_tilt	pelvis_list	pelvis_rotation	pelvis_tx	pelvis_ty	pelvis_tz	hip_flexion_r	hip_adduction_r	hip_rotation_r	knee_angle_r	knee_angle_r_beta	ankle_angle_r	subtalar_angle_r	mtp_angle_r	hip_flexion_l	hip_adduction_l	hip_rotation_l	knee_angle_l	knee_angle_l_beta	ankle_angle_l	subtalar_angle_l	mtp_angle_l	lumbar_extension	lumbar_bending	lumbar_rotation	arm_flex_r	arm_add_r	arm_rot_r	elbow_flex_r	pro_sup_r	wrist_flex_r	wrist_dev_r	arm_flex_l	arm_add_l	arm_rot_l	elbow_flex_l	pro_sup_l	wrist_flex_l	wrist_dev_l
      1.61500000	    -14.90174762	     -1.79722589	     -1.71594575	      0.15430384	      0.50470109	     -1.19918978	     93.53693942	    -46.86525829	     12.77242215	    108.92277437	      1.90106104	     31.36177235	     15.82301758	      0.00000000	    100.71218557	    -49.45232317	     19.24376515	    110.28832488	      1.92489440	     30.36009231	     26.49737376	      0.00000000	    -19.16423471	      4.17929895	     -0.44647823	     44.99990702	    -15.00000012	     44.99990702	     75.00017585	     45.00000026	      0.00000000	      0.00000000	     44.99990702	    -15.00000012	     44.99990702	     75.00017585	     45.00000026	      0.00000000	      0.00000000
      1.62000000	    -14.88900469	     -1.87603037	     -1.70011357	      0.15435191	      0.50307770	     -1.19910154	     93.72647999	    -46.92098938	     12.88452572	    109.18125819	      1.90557244	     31.48177770	     15.90917780	      0.00000000	    101.14431717	    -49.44815515	     19.68746039	    110.48990644	      1.92841266	     30.36939988	     26.57832676	      0.00000000	    -19.23387472	      4.27640896	     -0.41466862	     44.99990813	    -15.00000010	     44.99990813	     75.00017585	     45.00000026	      0.00000000	      0.00000000	     44.99990813	    -15.00000010	     44.99990813	     75.00017585	     45.00000026	      0.00000000	      0.00000000
      1.62500000	    -14.83287807	     -1.99324753	     -1.69761817	      0.15439199	      0.50172589	     -1.19904459	     93.76021556	    -46.94310644	     12.89455984	    109.38877015	      1.90919420	     31.54899220	     15.85509041	      0.00000000	    101.53604400	    -49.45264121	     20.15381658	    110.68128304	      1.93175281	     30.43179096	     26.73912587	      0.00000000	    -19.37769979	      4.40774998	     -0.40344597	     44.99990914	    -15.00000009	     44.99990914	     75.00017585	     45.00000026	      0.00000000	      0.00000000	     44.99990914	    -15.00000009	     44.99990914	     75.00017585	     45.00000026	      0.00000000	      0.00000000
      1.63000000	    -14.74516107	     -1.95708970	     -1.66327972	      0.15440657	      0.50038282	     -1.19889675	     94.00822218	    -47.01375196	     13.19914715	    109.62615037	      1.91333727	     31.67266454	     16.01129340	      0.00000000	    101.68737009	    -49.45995286	     20.33927979	    110.85922363	      1.93485846	     30.47842988	     26.77817148	      0.00000000	    -19.57080208	      4.35095422	     -0.43409071	     44.99991004	    -15.00000008	     44.99991004	     75.00017585	     45.00000026	      0.00000000	      0.00000000	     44.99991004	    -15.00000008	     44.99991004	     75.00017585	     45.00000026	      0.00000000	      0.00000000
      1.63500000	    -14.68269354	     -1.88458896	     -1.65013551	      0.15447201	      0.49913450	     -1.19869181	     94.26057559	    -47.04623624	     13.52883986	    109.83069045	      1.91690717	     31.80176607	     16.12854368	      0.00000000	    101.75338643	    -49.47540503	     20.42972425	    111.01497322	      1.93757680	     30.54999260	     26.87020377	      0.00000000	    -19.69766717	      4.25302666	     -0.41730580	     44.99991084	    -15.00000008	     44.99991084	     75.00017585	     45.00000026	      0.00000000	      0.00000000	     44.99991084	    -15.00000008	     44.99991084	     75.00017585	     45.00000026	      0.00000000	      0.00000000
      1.64000000	    -14.67617725	     -2.12176230	     -1.66104632	      0.15449794	      0.49762635	     -1.19874890	     94.19926471	    -47.07124905	     13.32904668	    110.02555713	      1.92030823	     31.85107941	     16.05523335	      0.00000000	    102.41508995	    -49.45832521	     21.15216950	    111.23174455	      1.94136018	     30.56384087	     27.02853803	      0.00000000	    -19.78661510	      4.53582123	     -0.41887363	     44.99991162	    -15.00000007	     44.99991162	     75.00017585	     45.00000026	      0.00000000	      0.00000000	     44.99991162	    -15.00000007	     44.99991162	     75.00017585	     45.00000026	      0.00000000	      0.00000000
      1.64500000	    -14.53036045	     -1.94502021	     -1.62250623	      0.15453665	      0.49655429	     -1.19847439	     94.53855217	    -47.14067184	     13.84659727	    110.24717771	      1.92417624	     31.94428467	     16.20445827	      0.00000000	    102.22589592	    -49.48064255	     21.05226269	    111.36893608	      1.94375462	     30.68021212	     27.12975973	      0.00000000	    -20.04101059	      4.28921340	     -0.45124334	     44.99991231	    -15.00000006	     44.99991231	     75.00017585	     45.00000026	      0.00000000	      0.00000000	     44.99991231	    -15.00000006	     44.99991231	     75.00017585	     45.00000026	      0.00000000	      0.00000000
      1.65000000	    -14.47856556	     -2.03268719	     -1.61472928	      0.15461162	      0.49523246	     -1.19844705	     94.60644807	    -47.19666617	     13.89526295	    110.43962659	      1.92753511	     32.04680005	     16.31113953	      0.00000000	    102.58608539	    -49.48254808	     21.44819827	    111.56108013	      1.94710817	     30.70669550	     27.24050569	      0.00000000	    -20.17729184	      4.40643424	     -0.43523010	     44.99991298	    -15.00000006	     44.99991298	     75.00017585	     45.00000026	      0.00000000	      0.00000000	     44.99991298	    -15.00000006	     44.99991298	     75.00017585	     45.00000026	      0.00000000	      0.00000000
